<?xml version="1.0" standalone="no"?>
<!DOCTYPE svg PUBLIC "-//W3C//DTD SVG 20010904//EN"
 "http://www.w3.org/TR/2001/REC-SVG-20010904/DTD/svg10.dtd">
<svg version="1.0" xmlns="http://www.w3.org/2000/svg"
 width="48.000000pt" height="48.000000pt" viewBox="0 0 48.000000 48.000000"
 preserveAspectRatio="xMidYMid meet">

<g transform="translate(0.000000,48.000000) scale(0.100000,-0.100000)"
fill="#000000" stroke="none">
<path d="M0 240 l0 -240 240 0 240 0 0 240 0 240 -240 0 -240 0 0 -240z m314
101 c53 -50 43 -175 -17 -211 -38 -23 -181 -30 -159 -8 17 17 16 219 0 237
-11 11 2 12 69 9 69 -3 85 -7 107 -27z"/>
<path d="M190 240 l0 -110 29 0 c61 0 98 69 80 148 -10 44 -40 72 -80 72 l-29
0 0 -110z"/>
</g>
</svg>
